<svg width="11" height="10" viewBox="0 0 11 10" fill="none" xmlns="http://www.w3.org/2000/svg">
<path d="M9.7589 1.16669L9.14203 4.56781C9.1055 4.76906 8.91414 4.91669 8.68979 4.91669H3.22802C3.00367 4.91669 2.81229 4.76906 2.77579 4.56781L2.22219 1.51557C2.18569 1.31433 1.99432 1.16669 1.76996 1.16669H0.916626" stroke="#302C2C" stroke-width="1.5" stroke-linecap="round" stroke-linejoin="round"/>
<path fill-rule="evenodd" clip-rule="evenodd" d="M3.66665 8.33333C3.91977 8.33333 4.12498 8.14679 4.12498 7.91667C4.12498 7.68654 3.91977 7.5 3.66665 7.5C3.41352 7.5 3.20831 7.68654 3.20831 7.91667C3.20831 8.14679 3.41352 8.33333 3.66665 8.33333Z" stroke="#302C2C" stroke-width="1.5"/>
<path fill-rule="evenodd" clip-rule="evenodd" d="M8.25002 8.33333C8.50316 8.33333 8.70835 8.14679 8.70835 7.91667C8.70835 7.68654 8.50316 7.5 8.25002 7.5C7.99688 7.5 7.79169 7.68654 7.79169 7.91667C7.79169 8.14679 7.99688 8.33333 8.25002 8.33333Z" stroke="#302C2C" stroke-width="1.5"/>
</svg>
