<svg width="45" height="44" viewBox="0 0 45 44" fill="none" xmlns="http://www.w3.org/2000/svg">
<path d="M9.375 22H31.875V31.1667C31.875 36.2292 27.6776 40.3333 22.5 40.3333H18.75C13.5723 40.3333 9.375 36.2292 9.375 31.1667V22Z" stroke="#302C2C" stroke-width="3"/>
<path d="M31.875 23.8333H35.625C37.6961 23.8333 39.375 25.4749 39.375 27.5C39.375 29.5251 37.6961 31.1667 35.625 31.1667H31.875" stroke="#302C2C" stroke-width="3"/>
<path d="M16.875 16.5C16.875 16.5 15 15.5833 15 12.8333C15 10.0833 16.875 9.16666 16.875 9.16666" stroke="#302C2C" stroke-width="3" stroke-linecap="round"/>
<path d="M22.5 5.5C22.5 5.5 24.375 6.41667 24.375 9.16667C24.375 11.9167 22.5 12.8333 22.5 12.8333" stroke="#302C2C" stroke-width="3" stroke-linecap="round"/>
</svg>
