<svg width="56" height="51" viewBox="0 0 56 51" fill="none" xmlns="http://www.w3.org/2000/svg">
<path d="M11.6667 25.5H39.6667V36.125C39.6667 41.993 34.4433 46.75 28 46.75H23.3334C16.89 46.75 11.6667 41.993 11.6667 36.125V25.5Z" stroke="white" stroke-width="3"/>
<path d="M39.6667 27.625H44.3333C46.9107 27.625 49 29.5277 49 31.875C49 34.2223 46.9107 36.125 44.3333 36.125H39.6667" stroke="white" stroke-width="3"/>
<path d="M21 19.125C21 19.125 18.6667 18.0625 18.6667 14.875C18.6667 11.6875 21 10.625 21 10.625" stroke="white" stroke-width="3" stroke-linecap="round"/>
<path d="M28 6.375C28 6.375 30.3333 7.4375 30.3333 10.625C30.3333 13.8125 28 14.875 28 14.875" stroke="white" stroke-width="3" stroke-linecap="round"/>
</svg>
